<?xml version="1.0" encoding="utf-8"?><svg viewBox="0 0 502.66 502.66" xmlns="http://www.w3.org/2000/svg" xmlns:xlink="http://www.w3.org/1999/xlink"><style>:root>svg{display:none}:root>svg:target{display:block}</style><svg viewBox="0 0 12 22" id="fb-icon" xmlns="http://www.w3.org/2000/svg"><path d="M12 4V0H8a4 4 0 00-4 4v4H0v4h4v10h4V12h4V8H8V4h4z"/></svg><svg viewBox="0 0 502.664 502.664" id="icon" xmlns="http://www.w3.org/2000/svg"><path d="M153.821 358.226L0 274.337v-46.463l153.821-83.414v54.574L46.636 250.523l107.185 53.431v54.272zm26.273 29.358L282.103 115.08h32.227L212.084 387.584h-31.99zm168.749-29.358v-54.272l107.164-52.999-107.164-52.59v-53.927l153.821 83.522v46.183l-153.821 84.083z"/></svg><svg viewBox="0 0 21 21" id="insta-icon" xmlns="http://www.w3.org/2000/svg"><path fill-rule="evenodd" clip-rule="evenodd" d="M3 0h15c1.65 0 3 1.35 3 3v15c0 1.65-1.35 3-3 3H3c-1.65 0-3-1.35-3-3V3c0-1.65 1.35-3 3-3zm11 10.5C14 8.57 12.43 7 10.5 7S7 8.57 7 10.5 8.57 14 10.5 14s3.5-1.57 3.5-3.5zM3 18V9h1.181A6.48 6.48 0 004 10.5a6.5 6.5 0 1013 0 6.451 6.451 0 00-.181-1.5H18v9H3zM14 7h4V3h-4v4z"/></svg><svg viewBox="0 0 27 15" id="vk-icon" xmlns="http://www.w3.org/2000/svg"><path d="M16.138 11.51c.956-.309 2.18 2.04 3.483 2.939.978.681 1.727.534 1.727.534l3.473-.05s1.815-.112.957-1.554c-.071-.12-.503-1.069-2.585-3.022-2.177-2.043-1.882-1.712.739-5.244 1.597-2.153 2.236-3.468 2.036-4.028-.192-.539-1.365-.399-1.365-.399L20.69.713c-.381.001-.704.119-.851.515-.003.004-.621 1.666-1.445 3.079-1.741 2.989-2.436 3.148-2.724 2.961-.661-.433-.494-1.737-.494-2.664 0-2.897.432-4.105-.846-4.417-.427-.104-.739-.172-1.828-.182-1.392-.021-2.574 0-3.244.329-.445.223-.786.712-.579.74.26.035.843.16 1.155.586.401.552.389 1.789.389 1.789s.229 3.411-.54 3.834c-.528.29-1.25-.302-2.803-3.016-.793-1.388-1.392-2.922-1.392-2.922s-.116-.285-.326-.441c-.25-.185-.6-.244-.6-.244L.848.684S.29.7.085.946c-.182.218-.015.668-.015.668s2.909 6.881 6.203 10.347c3.02 3.182 6.452 2.971 6.452 2.971h1.555s.469-.054.709-.312c.224-.24.214-.691.214-.691s-.031-2.109.935-2.419z"/></svg></svg>